<?xml version="1.0" encoding="utf-8"?>
<!-- Generator: Adobe Illustrator 16.0.3, SVG Export Plug-In . SVG Version: 6.00 Build 0)  -->
<!DOCTYPE svg PUBLIC "-//W3C//DTD SVG 1.1//EN" "http://www.w3.org/Graphics/SVG/1.1/DTD/svg11.dtd">
<svg version="1.1" id="Layer_1" xmlns="http://www.w3.org/2000/svg" xmlns:xlink="http://www.w3.org/1999/xlink" x="0px" y="0px"
	 width="236px" height="60px" viewBox="0 0 236 60" enable-background="new 0 0 236 60" xml:space="preserve">
<path fill="#FFFFFF" d="M122.827,45.781h7.728V19.698h-7.728v2.742h-0.077c-0.927-1.645-3.246-3.682-7.495-3.682
	c-6.878,0-12.982,5.405-12.982,13.943c0,7.441,4.791,13.942,12.982,13.942c3.013,0,6.181-1.175,7.495-3.682h0.077V45.781z
	 M122.827,32.699c0,2.508-1.623,6.658-6.413,6.658c-4.637,0-6.414-4.15-6.414-6.579c0-2.977,1.932-6.737,6.336-6.737
	C120.664,26.042,122.827,29.566,122.827,32.699z"/>
<path fill="#FFFFFF" d="M150.182,45.703h-7.728l-8.81-26.084h7.728l4.946,16.293h0.076l5.178-16.293h7.727L150.182,45.703z"/>
<path fill="#FFFFFF" d="M179.622,44.215c2.163-1.488,4.019-3.76,5.254-6.658v-0.078h-7.881c-1.082,1.331-2.319,2.428-4.714,2.428
	c-3.014,0-5.564-1.801-6.027-4.935h19.318c0.005-0.036,0.01-0.073,0.015-0.109c0.072-0.505,0.14-0.978,0.14-1.927
	c0-7.99-5.795-14.257-13.601-14.257c-7.881,0-13.522,6.736-13.522,14.021c0,7.833,6.336,13.864,13.678,13.864
	C174.908,46.564,177.458,45.781,179.622,44.215z M172.204,25.336c4.019,0,5.563,2.898,5.872,4.465h-11.745
	C166.717,28.234,168.186,25.336,172.204,25.336z"/>
<path fill="#FFFFFF" d="M197.703,19.619h7.188v2.742h0.076c0.618-1.253,2.01-3.682,6.414-3.682v7.833
	c-3.555,0.079-6.027,0.862-6.027,4.778v14.335h-7.728V19.619H197.703z"/>
<path fill="#FFFFFF" d="M226.912,26.982c-0.077-0.548-0.154-1.958-2.395-1.958c-1.623,0-2.164,1.019-2.164,1.724
	c0,1.41,1.932,2.193,3.94,2.82c4.328,1.253,9.041,2.507,9.041,8.146c0,5.483-4.791,8.93-10.509,8.93
	c-3.863,0-9.813-1.802-10.51-8.694h7.65c0.309,2.428,2.627,2.428,2.936,2.428c1.314,0,2.705-0.783,2.705-2.037
	c0-2.036-1.932-2.271-6.799-4.15c-3.324-1.098-6.105-3.291-6.105-6.815c0-5.17,4.637-8.616,9.969-8.616
	c3.4,0,9.271,1.332,9.891,8.225H226.912z"/>
<path fill="#FFFFFF" d="M96.245,21.028c-1.391-1.253-4.095-2.271-6.568-2.271c-4.559,0-5.563,2.428-6.336,3.682h-0.077v-2.742
	h-7.187v26.084h7.728V29.88c0-1.175,0.463-2.193,1.236-2.898c0.077-0.078,0.154-0.156,0.231-0.156
	c0.078-0.079,0.155-0.157,0.232-0.157h0.077c0.618-0.392,1.314-0.627,2.086-0.627c1.004,0,1.854,0.392,2.55,1.019
	c0.772,0.705,1.313,1.723,1.313,2.898v1.019c0,0.156,0,0.392,0,0.549v14.256h7.727V29.41C99.259,24.318,97.636,22.203,96.245,21.028
	z"/>
<path fill="#FFFFFF" d="M190.749,45.781c-2.164,0-3.864-1.724-3.864-3.917s1.7-3.917,3.864-3.917s3.864,1.724,3.864,3.917
	C194.613,43.979,192.913,45.781,190.749,45.781z"/>
<path fill="#FFFFFF" d="M28.849,45.269L28.159,60l12.43-16.189l1.304-12.123l10.205-10.204L60.077,0L38.593,7.903L28.312,18.107
	l-12.123,1.304L0,31.842l14.731-0.691L28.849,45.269z"/>
<path fill="#FFFFFF" d="M15.421,36.137l8.44,8.518l-12.506,4.526L15.421,36.137z"/>
</svg>
